<mxfile host="app.diagrams.net" agent="Mozilla/5.0 (Windows NT 10.0; Win64; x64) AppleWebKit/537.36 (KHTML, like Gecko) Chrome/132.0.0.0 YaBrowser/25.2.0.0 Safari/537.36" version="26.1.1">
  <diagram id="C5RBs43oDa-KdzZeNtuy" name="Page-1">
    <mxGraphModel dx="2876" dy="1119" grid="1" gridSize="10" guides="1" tooltips="1" connect="1" arrows="1" fold="1" page="1" pageScale="1" pageWidth="827" pageHeight="1169" math="0" shadow="0">
      <root>
        <mxCell id="WIyWlLk6GJQsqaUBKTNV-0" />
        <mxCell id="WIyWlLk6GJQsqaUBKTNV-1" parent="WIyWlLk6GJQsqaUBKTNV-0" />
        <mxCell id="NbKrStHt6KwaUkh5Cjne-28" value="MainForm" style="swimlane;fontStyle=1;align=center;verticalAlign=top;childLayout=stackLayout;horizontal=1;startSize=26;horizontalStack=0;resizeParent=1;resizeParentMax=0;resizeLast=0;collapsible=1;marginBottom=0;" parent="WIyWlLk6GJQsqaUBKTNV-1" vertex="1">
          <mxGeometry x="-80" y="130" width="200" height="130" as="geometry" />
        </mxCell>
        <mxCell id="MrV4dA6cNiSCKsGyIFQu-25" value="- BotLogic bot;&#xa;- void LoadChatHistory()&#xa;- void MainForm_Load()&#xa;- void AppendColoredText()" style="text;strokeColor=none;fillColor=none;align=left;verticalAlign=top;spacingLeft=4;spacingRight=4;overflow=hidden;rotatable=0;points=[[0,0.5],[1,0.5]];portConstraint=eastwest;" parent="NbKrStHt6KwaUkh5Cjne-28" vertex="1">
          <mxGeometry y="26" width="200" height="104" as="geometry" />
        </mxCell>
        <mxCell id="qY5r2CB7u8Rm1kq44lVM-3" value="Наследование" style="endArrow=block;endSize=16;endFill=0;html=1;rounded=0;" parent="WIyWlLk6GJQsqaUBKTNV-1" edge="1">
          <mxGeometry x="-0.3333" y="10" width="160" relative="1" as="geometry">
            <mxPoint x="640" y="420" as="sourcePoint" />
            <mxPoint x="740" y="420" as="targetPoint" />
            <Array as="points">
              <mxPoint x="690" y="420" />
            </Array>
            <mxPoint as="offset" />
          </mxGeometry>
        </mxCell>
        <mxCell id="0UHnWho8XeIMq1rSNIeW-5" value="BotLogic" style="swimlane;fontStyle=1;align=center;verticalAlign=top;childLayout=stackLayout;horizontal=1;startSize=26;horizontalStack=0;resizeParent=1;resizeParentMax=0;resizeLast=0;collapsible=1;marginBottom=0;" vertex="1" parent="WIyWlLk6GJQsqaUBKTNV-1">
          <mxGeometry x="-110" y="310" width="260" height="270" as="geometry" />
        </mxCell>
        <mxCell id="0UHnWho8XeIMq1rSNIeW-6" value="- List&lt;Message&gt; messageHistory&#xa;- string userName&#xa;- string GenerateResponse()&#xa;- string GetTimeForCity()&#xa;- bool IsMathExpression()&#xa;- double EvaluateExpression()&#xa;- double EvaluateSimpleExpression()&#xa;- double EvaluateMultiplication()&#xa;- void LoadHistory()&#xa;----------------------------------------------------------------&#xa;+ string UserName&#xa;+ BotLogic()&#xa;+ string ProcessMessage()&#xa;+  void SetUserName()&#xa;+ void SaveHistory()&#xa;+ List&lt;Message&gt; GetHistory()" style="text;strokeColor=none;fillColor=none;align=left;verticalAlign=top;spacingLeft=4;spacingRight=4;overflow=hidden;rotatable=0;points=[[0,0.5],[1,0.5]];portConstraint=eastwest;" vertex="1" parent="0UHnWho8XeIMq1rSNIeW-5">
          <mxGeometry y="26" width="260" height="244" as="geometry" />
        </mxCell>
        <mxCell id="0UHnWho8XeIMq1rSNIeW-7" value="Message" style="swimlane;fontStyle=1;align=center;verticalAlign=top;childLayout=stackLayout;horizontal=1;startSize=26;horizontalStack=0;resizeParent=1;resizeParentMax=0;resizeLast=0;collapsible=1;marginBottom=0;" vertex="1" parent="WIyWlLk6GJQsqaUBKTNV-1">
          <mxGeometry x="-90" y="680" width="200" height="130" as="geometry" />
        </mxCell>
        <mxCell id="0UHnWho8XeIMq1rSNIeW-8" value="- string Author&#xa;- string Text&#xa;- DateTime Timestamp" style="text;strokeColor=none;fillColor=none;align=left;verticalAlign=top;spacingLeft=4;spacingRight=4;overflow=hidden;rotatable=0;points=[[0,0.5],[1,0.5]];portConstraint=eastwest;" vertex="1" parent="0UHnWho8XeIMq1rSNIeW-7">
          <mxGeometry y="26" width="200" height="104" as="geometry" />
        </mxCell>
        <mxCell id="0UHnWho8XeIMq1rSNIeW-10" value="" style="endArrow=diamondThin;endFill=1;endSize=24;html=1;rounded=0;entryX=0.5;entryY=0;entryDx=0;entryDy=0;exitX=0.454;exitY=1.004;exitDx=0;exitDy=0;exitPerimeter=0;" edge="1" parent="WIyWlLk6GJQsqaUBKTNV-1" source="0UHnWho8XeIMq1rSNIeW-6" target="0UHnWho8XeIMq1rSNIeW-7">
          <mxGeometry width="160" relative="1" as="geometry">
            <mxPoint x="10" y="610" as="sourcePoint" />
            <mxPoint x="144" y="610" as="targetPoint" />
          </mxGeometry>
        </mxCell>
        <mxCell id="0UHnWho8XeIMq1rSNIeW-15" value="" style="endArrow=diamondThin;endFill=1;endSize=24;html=1;rounded=0;exitX=0.49;exitY=1;exitDx=0;exitDy=0;exitPerimeter=0;entryX=0.5;entryY=0;entryDx=0;entryDy=0;" edge="1" parent="WIyWlLk6GJQsqaUBKTNV-1" source="MrV4dA6cNiSCKsGyIFQu-25" target="0UHnWho8XeIMq1rSNIeW-5">
          <mxGeometry width="160" relative="1" as="geometry">
            <mxPoint x="14" y="270" as="sourcePoint" />
            <mxPoint x="148" y="270" as="targetPoint" />
          </mxGeometry>
        </mxCell>
        <mxCell id="0UHnWho8XeIMq1rSNIeW-17" value="Form" style="swimlane;fontStyle=1;align=center;verticalAlign=top;childLayout=stackLayout;horizontal=1;startSize=26;horizontalStack=0;resizeParent=1;resizeParentMax=0;resizeLast=0;collapsible=1;marginBottom=0;" vertex="1" parent="WIyWlLk6GJQsqaUBKTNV-1">
          <mxGeometry x="90" y="20" width="200" height="30" as="geometry" />
        </mxCell>
        <mxCell id="0UHnWho8XeIMq1rSNIeW-18" value="" style="endArrow=block;endSize=16;endFill=0;html=1;rounded=0;exitX=0.5;exitY=1;exitDx=0;exitDy=0;entryX=0.5;entryY=0;entryDx=0;entryDy=0;" edge="1" parent="WIyWlLk6GJQsqaUBKTNV-1" source="0UHnWho8XeIMq1rSNIeW-17" target="NbKrStHt6KwaUkh5Cjne-28">
          <mxGeometry x="-0.3333" y="10" width="160" relative="1" as="geometry">
            <mxPoint x="140" y="90" as="sourcePoint" />
            <mxPoint x="260" y="90" as="targetPoint" />
            <Array as="points">
              <mxPoint x="190" y="90" />
              <mxPoint x="20" y="90" />
            </Array>
            <mxPoint as="offset" />
          </mxGeometry>
        </mxCell>
        <mxCell id="0UHnWho8XeIMq1rSNIeW-19" value="" style="endArrow=block;endSize=16;endFill=0;html=1;rounded=0;exitX=0.5;exitY=1;exitDx=0;exitDy=0;entryX=0.5;entryY=0;entryDx=0;entryDy=0;" edge="1" parent="WIyWlLk6GJQsqaUBKTNV-1" target="0UHnWho8XeIMq1rSNIeW-26">
          <mxGeometry x="-0.3333" y="10" width="160" relative="1" as="geometry">
            <mxPoint x="190" y="50" as="sourcePoint" />
            <mxPoint x="360" y="130" as="targetPoint" />
            <Array as="points">
              <mxPoint x="190" y="90" />
              <mxPoint x="375" y="90" />
            </Array>
            <mxPoint as="offset" />
          </mxGeometry>
        </mxCell>
        <mxCell id="0UHnWho8XeIMq1rSNIeW-20" value="MainForm" style="swimlane;fontStyle=1;align=center;verticalAlign=top;childLayout=stackLayout;horizontal=1;startSize=26;horizontalStack=0;resizeParent=1;resizeParentMax=0;resizeLast=0;collapsible=1;marginBottom=0;" vertex="1" parent="WIyWlLk6GJQsqaUBKTNV-1">
          <mxGeometry x="-80" y="880" width="200" height="30" as="geometry" />
        </mxCell>
        <mxCell id="0UHnWho8XeIMq1rSNIeW-22" value="LoginForm" style="swimlane;fontStyle=1;align=center;verticalAlign=top;childLayout=stackLayout;horizontal=1;startSize=26;horizontalStack=0;resizeParent=1;resizeParentMax=0;resizeLast=0;collapsible=1;marginBottom=0;" vertex="1" parent="WIyWlLk6GJQsqaUBKTNV-1">
          <mxGeometry x="224" y="880" width="200" height="30" as="geometry" />
        </mxCell>
        <mxCell id="0UHnWho8XeIMq1rSNIeW-24" value="" style="endArrow=open;endSize=16;endFill=0;html=1;rounded=0;" edge="1" parent="WIyWlLk6GJQsqaUBKTNV-1">
          <mxGeometry x="-0.3333" y="10" width="160" relative="1" as="geometry">
            <mxPoint x="124" y="894.66" as="sourcePoint" />
            <mxPoint x="224" y="894.66" as="targetPoint" />
            <Array as="points">
              <mxPoint x="164" y="894.66" />
            </Array>
            <mxPoint as="offset" />
          </mxGeometry>
        </mxCell>
        <mxCell id="0UHnWho8XeIMq1rSNIeW-26" value="MainForm" style="swimlane;fontStyle=1;align=center;verticalAlign=top;childLayout=stackLayout;horizontal=1;startSize=26;horizontalStack=0;resizeParent=1;resizeParentMax=0;resizeLast=0;collapsible=1;marginBottom=0;" vertex="1" parent="WIyWlLk6GJQsqaUBKTNV-1">
          <mxGeometry x="260" y="130" width="230" height="130" as="geometry" />
        </mxCell>
        <mxCell id="0UHnWho8XeIMq1rSNIeW-27" value="+ string UserName&#xa;+ LoginForm()&#xa;-------------------------------------------------&#xa;- void textBoxUserName_TextChanged()&#xa;- void textBoxUserName_KeyDown()" style="text;strokeColor=none;fillColor=none;align=left;verticalAlign=top;spacingLeft=4;spacingRight=4;overflow=hidden;rotatable=0;points=[[0,0.5],[1,0.5]];portConstraint=eastwest;" vertex="1" parent="0UHnWho8XeIMq1rSNIeW-26">
          <mxGeometry y="26" width="230" height="104" as="geometry" />
        </mxCell>
        <mxCell id="0UHnWho8XeIMq1rSNIeW-28" value="Ассоциация" style="endArrow=open;endSize=16;endFill=0;html=1;rounded=0;" edge="1" parent="WIyWlLk6GJQsqaUBKTNV-1">
          <mxGeometry x="-0.3333" y="10" width="160" relative="1" as="geometry">
            <mxPoint x="640" y="260" as="sourcePoint" />
            <mxPoint x="740" y="260" as="targetPoint" />
            <Array as="points">
              <mxPoint x="680" y="260" />
            </Array>
            <mxPoint as="offset" />
          </mxGeometry>
        </mxCell>
        <mxCell id="0UHnWho8XeIMq1rSNIeW-29" value="&lt;div&gt;&lt;br&gt;&lt;/div&gt;" style="endArrow=diamondThin;endFill=1;endSize=24;html=1;rounded=0;align=right;" edge="1" parent="WIyWlLk6GJQsqaUBKTNV-1">
          <mxGeometry width="160" relative="1" as="geometry">
            <mxPoint x="640" y="340" as="sourcePoint" />
            <mxPoint x="740" y="340" as="targetPoint" />
            <mxPoint as="offset" />
          </mxGeometry>
        </mxCell>
        <mxCell id="0UHnWho8XeIMq1rSNIeW-32" value="Композиция" style="text;html=1;align=center;verticalAlign=middle;resizable=0;points=[];autosize=1;strokeColor=none;fillColor=none;" vertex="1" parent="WIyWlLk6GJQsqaUBKTNV-1">
          <mxGeometry x="630" y="310" width="90" height="30" as="geometry" />
        </mxCell>
      </root>
    </mxGraphModel>
  </diagram>
</mxfile>
